<svg width="48" height="33" xmlns="http://www.w3.org/2000/svg" xmlns:xlink="http://www.w3.org/1999/xlink">
    <defs>
        <path id="a" d="M0 0h48v33H0z"/>
    </defs>
    <g fill="none" fill-rule="evenodd">
        <mask id="b" fill="#fff">
            <use xlink:href="#a"/>
        </mask>
        <path d="m47.242 23.185-7.116 4.162v-8.322l3.862-2.26 3.254-1.904v8.324zm-7.495-4.824L24.19 9.26a.374.374 0 0 0-.378 0l-15.558 9.1-4.394-2.571-2.723-1.594L24 .826l22.864 13.37-6.17 3.61-.947.555zm-.378 8.986-7.117-4.162V18.8a.385.385 0 0 0-.189-.332l-7.684-4.494v-3.717l9.993 5.845 4.997 2.922v8.322zm-7.874-7.881v8.321l-7.116 4.164v-8.323l1.779-1.04 1.779-1.041.757-.443 2.8-1.638zM24 22.963l-1.779-1.04-1.4-.82-.758-.442-3.18-1.86 6.738-3.94.379-.222.379.222 6.737 3.94-3.18 1.86-.757.443-1.4.819-1.78 1.04zm-.379.665v8.324l-7.116-4.162v-8.324l2.8 1.638.758.443 1.78 1.04 1.778 1.04zM15.747 18.8v4.384l-7.116 4.162v-8.321l14.99-8.768v3.717l-7.684 4.494a.385.385 0 0 0-.19.332zm-7.873 8.546L.758 23.185V14.86l7.116 4.164v8.322zM47.81 13.864 24.189.05a.375.375 0 0 0-.378 0L.189 13.864a.385.385 0 0 0-.189.332v9.21c0 .137.072.264.19.332l7.873 4.606a.374.374 0 0 0 .379 0l7.305-4.273v3.94c0 .137.073.264.19.333l7.874 4.605h.001a.374.374 0 0 0 .377 0l7.874-4.608a.385.385 0 0 0 .19-.333v-3.937l7.305 4.273a.375.375 0 0 0 .379 0l7.874-4.606a.385.385 0 0 0 .189-.332v-9.21a.385.385 0 0 0-.19-.332z" fill="#333" mask="url(#b)"/>
    </g>
</svg>
